<?xml version="1.0" encoding="UTF-8"?>
<svg xmlns="http://www.w3.org/2000/svg" xmlns:xlink="http://www.w3.org/1999/xlink" viewBox="0 0 103 73.41">
  <defs>
    <style>
      .cls-1 {
        fill: url(#radial-gradient-4);
      }

      .cls-1, .cls-2, .cls-3, .cls-4, .cls-5, .cls-6, .cls-7, .cls-8, .cls-9, .cls-10, .cls-11 {
        stroke-width: 0px;
      }

      .cls-1, .cls-2, .cls-3, .cls-4, .cls-5, .cls-7, .cls-8, .cls-9, .cls-11 {
        mix-blend-mode: overlay;
      }

      .cls-2 {
        fill: url(#radial-gradient-7);
      }

      .cls-2, .cls-7 {
        opacity: .5;
      }

      .cls-12 {
        isolation: isolate;
      }

      .cls-3 {
        fill: url(#radial-gradient-3);
      }

      .cls-3, .cls-8 {
        opacity: .3;
      }

      .cls-4 {
        fill: url(#Degradado_sin_nombre_34);
      }

      .cls-4, .cls-5, .cls-11 {
        opacity: .2;
      }

      .cls-5 {
        fill: url(#Degradado_sin_nombre_34-2);
      }

      .cls-6 {
        fill: url(#radial-gradient);
      }

      .cls-7 {
        fill: url(#radial-gradient-2);
      }

      .cls-8 {
        fill: url(#radial-gradient-8);
      }

      .cls-9 {
        fill: url(#radial-gradient-5);
        opacity: .4;
      }

      .cls-10 {
        fill: url(#radial-gradient-6);
      }

      .cls-11 {
        fill: url(#Degradado_sin_nombre_34-3);
      }
    </style>
    <radialGradient id="radial-gradient" cx="1376.27" cy="7.79" fx="1376.27" fy="7.79" r="70.49" gradientTransform="translate(1414.54) rotate(-180) scale(1 -1)" gradientUnits="userSpaceOnUse">
      <stop offset="0" stop-color="#b9cfd5"/>
      <stop offset=".2" stop-color="#9bbac2"/>
      <stop offset="1" stop-color="#5c8bb8"/>
    </radialGradient>
    <radialGradient id="radial-gradient-2" cx="519.26" cy="-2361" fx="519.26" fy="-2361" r="8.27" gradientTransform="translate(3424.09 -3680.48) rotate(53.97) scale(1.43 -2.08) skewX(-4.38)" gradientUnits="userSpaceOnUse">
      <stop offset="0" stop-color="#fff"/>
      <stop offset=".1" stop-color="#fff" stop-opacity=".85"/>
      <stop offset=".29" stop-color="#fff" stop-opacity=".59"/>
      <stop offset=".47" stop-color="#fff" stop-opacity=".38"/>
      <stop offset=".63" stop-color="#fff" stop-opacity=".22"/>
      <stop offset=".78" stop-color="#fff" stop-opacity=".1"/>
      <stop offset=".91" stop-color="#fff" stop-opacity=".03"/>
      <stop offset="1" stop-color="#fff" stop-opacity="0"/>
    </radialGradient>
    <radialGradient id="radial-gradient-3" cx="543.68" cy="-2348.75" fx="543.68" fy="-2348.75" r="4.55" xlink:href="#radial-gradient-2"/>
    <radialGradient id="Degradado_sin_nombre_34" data-name="Degradado sin nombre 34" cx="1497.43" cy="72.22" fx="1497.43" fy="72.22" r="4.75" gradientTransform="translate(1251.41 600.42) rotate(-146.99) scale(.84 -2.3) skewX(11.81)" gradientUnits="userSpaceOnUse">
      <stop offset="0" stop-color="#fff"/>
      <stop offset=".1" stop-color="#fff" stop-opacity=".85"/>
      <stop offset=".29" stop-color="#fff" stop-opacity=".59"/>
      <stop offset=".47" stop-color="#fff" stop-opacity=".38"/>
      <stop offset=".63" stop-color="#fff" stop-opacity=".22"/>
      <stop offset=".78" stop-color="#fff" stop-opacity=".1"/>
      <stop offset=".91" stop-color="#fff" stop-opacity=".03"/>
      <stop offset="1" stop-color="#fff" stop-opacity="0"/>
    </radialGradient>
    <radialGradient id="radial-gradient-4" cx="518.56" cy="-2373.32" fx="518.56" fy="-2373.32" r="8.27" xlink:href="#radial-gradient-2"/>
    <radialGradient id="radial-gradient-5" cx="542.98" cy="-2361.06" fx="542.98" fy="-2361.06" r="4.55" xlink:href="#radial-gradient-2"/>
    <radialGradient id="Degradado_sin_nombre_34-2" data-name="Degradado sin nombre 34" cx="1518.16" cy="96.06" fx="1518.16" fy="96.06" r="4.75" gradientTransform="translate(1278.87 581.61) rotate(-146.99) scale(.84 -2.3) skewX(11.81)" xlink:href="#Degradado_sin_nombre_34"/>
    <radialGradient id="radial-gradient-6" cx="1396.79" cy="24.43" fx="1396.79" fy="24.43" r="70.49" xlink:href="#radial-gradient"/>
    <radialGradient id="radial-gradient-7" cx="519.26" cy="-2373.68" fx="519.26" fy="-2373.68" xlink:href="#radial-gradient-2"/>
    <radialGradient id="radial-gradient-8" cx="543.67" cy="-2361.43" fx="543.67" fy="-2361.43" r="4.55" xlink:href="#radial-gradient-2"/>
    <radialGradient id="Degradado_sin_nombre_34-3" data-name="Degradado sin nombre 34" cx="1517.91" cy="97.69" fx="1517.91" fy="97.69" gradientTransform="translate(1280.98 579.79) rotate(-146.99) scale(.84 -2.3) skewX(11.81)" xlink:href="#Degradado_sin_nombre_34"/>
  </defs>
  <g class="cls-12">
    <g id="Layer_1" data-name="Layer 1">
      <g>
        <g>
          <path class="cls-6" d="m48.92,0c13.37,0,24.58,9.25,27.59,21.7,2.43-1.18,5.14-1.86,8.03-1.86,10.2,0,18.47,8.27,18.47,18.47s-8.27,18.47-18.47,18.47h-35.62c-15.68,0-28.39-12.71-28.39-28.39S33.24,0,48.92,0Z"/>
          <path class="cls-7" d="m45.28,27.13c7.39-6,10.28-15.13,6.45-20.4-3.83-5.27-12.94-4.68-20.33,1.31-7.39,6-10.27,15.13-6.44,20.4,3.83,5.27,12.94,4.68,20.33-1.32Z"/>
          <path class="cls-3" d="m82.48,34.92c4.06-3.3,5.65-8.32,3.54-11.21-2.11-2.9-7.11-2.57-11.17.72-4.06,3.3-5.65,8.32-3.54,11.21,2.11,2.9,7.11,2.57,11.17-.72Z"/>
          <path class="cls-4" d="m91.49,42.1c4.47-4.52,9.08-6.29,10.31-3.95,1.22,2.33-1.4,7.9-5.87,12.42-4.47,4.52-9.09,6.29-10.31,3.95-1.22-2.34,1.4-7.9,5.87-12.42Z"/>
        </g>
        <g>
          <path class="cls-1" d="m24.75,42.48c7.39-6,10.28-15.13,6.45-20.4-3.83-5.27-12.93-4.68-20.33,1.31-7.39,6-10.27,15.13-6.44,20.4,3.84,5.27,12.94,4.68,20.33-1.31Z"/>
          <path class="cls-9" d="m61.95,50.27c4.06-3.3,5.65-8.31,3.54-11.21-2.11-2.9-7.11-2.57-11.17.72-4.06,3.3-5.65,8.32-3.54,11.21,2.11,2.9,7.11,2.57,11.17-.72Z"/>
          <path class="cls-5" d="m70.97,57.45c4.47-4.52,9.08-6.29,10.31-3.95,1.22,2.34-1.4,7.9-5.87,12.42-4.47,4.52-9.09,6.29-10.31,3.95-1.22-2.34,1.4-7.9,5.87-12.42Z"/>
        </g>
      </g>
      <g>
        <path class="cls-10" d="m28.39,16.63c13.37,0,24.58,9.25,27.59,21.7,2.43-1.18,5.14-1.86,8.03-1.86,10.2,0,18.47,8.27,18.47,18.47s-8.27,18.47-18.47,18.47H28.39c-15.68,0-28.39-12.71-28.39-28.39s12.71-28.39,28.39-28.39Z"/>
        <path class="cls-2" d="m24.75,43.76c7.39-6,10.28-15.13,6.45-20.4-3.83-5.27-12.94-4.68-20.33,1.31-7.39,6-10.27,15.13-6.44,20.4,3.83,5.27,12.94,4.68,20.33-1.32Z"/>
        <path class="cls-8" d="m61.95,51.55c4.06-3.3,5.65-8.32,3.54-11.21-2.11-2.9-7.11-2.57-11.17.72-4.06,3.3-5.65,8.32-3.54,11.21,2.11,2.9,7.11,2.57,11.17-.72Z"/>
        <path class="cls-11" d="m70.97,58.73c4.47-4.52,9.08-6.29,10.31-3.95,1.22,2.33-1.4,7.9-5.87,12.42-4.47,4.52-9.09,6.29-10.31,3.95-1.22-2.34,1.4-7.9,5.87-12.42Z"/>
      </g>
    </g>
  </g>
</svg>