<?xml version="1.0" encoding="UTF-8"?>
<svg xmlns="http://www.w3.org/2000/svg" xmlns:xlink="http://www.w3.org/1999/xlink" viewBox="0 0 87.47 88.1">
  <defs>
    <style>
      .cls-1 {
        isolation: isolate;
      }

      .cls-2 {
        fill: url(#Degradado_sin_nombre_34);
        opacity: .2;
      }

      .cls-2, .cls-3, .cls-4, .cls-5, .cls-6, .cls-7, .cls-8 {
        stroke-width: 0px;
      }

      .cls-2, .cls-4, .cls-6 {
        mix-blend-mode: overlay;
      }

      .cls-3 {
        fill: url(#radial-gradient-2);
      }

      .cls-4 {
        fill: url(#radial-gradient-6);
        opacity: .3;
      }

      .cls-5 {
        fill: url(#radial-gradient);
      }

      .cls-6 {
        fill: url(#radial-gradient-5);
        opacity: .5;
      }

      .cls-7 {
        fill: url(#radial-gradient-3);
      }

      .cls-8 {
        fill: url(#radial-gradient-4);
      }
    </style>
    <radialGradient id="radial-gradient" cx="36.95" cy="57.31" fx="36.95" fy="57.31" r="19.67" gradientUnits="userSpaceOnUse">
      <stop offset="0" stop-color="#3dc4e3"/>
      <stop offset="1" stop-color="#2956a6"/>
    </radialGradient>
    <radialGradient id="radial-gradient-2" cx="73.36" cy="55.65" fx="73.36" fy="55.65" xlink:href="#radial-gradient"/>
    <radialGradient id="radial-gradient-3" cx="52.79" cy="75.8" fx="52.79" fy="75.8" r="15" xlink:href="#radial-gradient"/>
    <radialGradient id="radial-gradient-4" cx="1354.56" cy="8.27" fx="1354.56" fy="8.27" r="74.76" gradientTransform="translate(1373.39) rotate(-180) scale(1 -1)" gradientUnits="userSpaceOnUse">
      <stop offset="0" stop-color="#b9cfd5"/>
      <stop offset=".2" stop-color="#9bbac2"/>
      <stop offset="1" stop-color="#5c8bb8"/>
    </radialGradient>
    <radialGradient id="radial-gradient-5" cx="517.56" cy="-2402.72" fx="517.56" fy="-2402.72" r="8.77" gradientTransform="translate(3473.59 -3732.21) rotate(53.97) scale(1.43 -2.08) skewX(-4.38)" gradientUnits="userSpaceOnUse">
      <stop offset="0" stop-color="#fff"/>
      <stop offset=".1" stop-color="#fff" stop-opacity=".85"/>
      <stop offset=".29" stop-color="#fff" stop-opacity=".59"/>
      <stop offset=".47" stop-color="#fff" stop-opacity=".38"/>
      <stop offset=".63" stop-color="#fff" stop-opacity=".22"/>
      <stop offset=".78" stop-color="#fff" stop-opacity=".1"/>
      <stop offset=".91" stop-color="#fff" stop-opacity=".03"/>
      <stop offset="1" stop-color="#fff" stop-opacity="0"/>
    </radialGradient>
    <radialGradient id="radial-gradient-6" cx="543.46" cy="-2389.72" fx="543.46" fy="-2389.72" r="4.82" xlink:href="#radial-gradient-5"/>
    <radialGradient id="Degradado_sin_nombre_34" data-name="Degradado sin nombre 34" cx="1464.91" cy="83.69" fx="1464.91" fy="83.69" r="5.04" gradientTransform="translate(1228.43 567.31) rotate(-146.99) scale(.84 -2.3) skewX(11.81)" gradientUnits="userSpaceOnUse">
      <stop offset="0" stop-color="#fff"/>
      <stop offset=".1" stop-color="#fff" stop-opacity=".85"/>
      <stop offset=".29" stop-color="#fff" stop-opacity=".59"/>
      <stop offset=".47" stop-color="#fff" stop-opacity=".38"/>
      <stop offset=".63" stop-color="#fff" stop-opacity=".22"/>
      <stop offset=".78" stop-color="#fff" stop-opacity=".1"/>
      <stop offset=".91" stop-color="#fff" stop-opacity=".03"/>
      <stop offset="1" stop-color="#fff" stop-opacity="0"/>
    </radialGradient>
  </defs>
  <g class="cls-1">
    <g id="Layer_1" data-name="Layer 1">
      <g>
        <path class="cls-5" d="m39.93,66.19l-2.11-1.22.65-.38c.52-.3.7-.96.4-1.48-.3-.52-.96-.7-1.48-.4l-1.74,1-1.6-.92c.07-.29.11-.59.11-.89s-.04-.61-.11-.89l1.6-.93,1.74,1c.17.1.36.15.54.15.37,0,.74-.19.94-.54.3-.52.12-1.18-.4-1.48l-.65-.38,2.11-1.22c.52-.3.7-.96.4-1.48-.3-.52-.96-.7-1.48-.4l-2.11,1.22v-.75c0-.6-.48-1.08-1.08-1.08h0c-.6,0-1.08.48-1.08,1.08v2s-1.6.93-1.6.93c-.43-.41-.96-.72-1.55-.9v-1.85l1.74-1c.52-.3.69-.96.4-1.48-.3-.52-.96-.7-1.48-.4l-.65.38v-2.44c0-.6-.48-1.08-1.08-1.08s-1.08.48-1.08,1.08v2.44l-.65-.38c-.52-.3-1.18-.12-1.48.4-.3.52-.12,1.18.4,1.48l1.74,1v1.85c-.59.17-1.11.49-1.55.9l-1.6-.93v-2c0-.6-.49-1.08-1.08-1.08s-1.08.48-1.08,1.08v.75l-2.11-1.22c-.52-.3-1.18-.12-1.48.4-.3.52-.12,1.18.4,1.48l2.11,1.22-.65.38c-.52.3-.7.96-.4,1.48.2.35.56.54.94.54.18,0,.37-.05.54-.15l1.74-1,1.6.93c-.07.29-.11.59-.11.89s.04.61.11.89l-1.6.92-1.74-1c-.52-.3-1.18-.12-1.48.4-.3.52-.12,1.18.4,1.48l.65.38-2.11,1.22c-.52.3-.7.96-.4,1.48.2.35.56.54.94.54.18,0,.37-.05.54-.15l2.11-1.22v.75c0,.6.49,1.08,1.08,1.08s1.08-.48,1.08-1.08v-2s1.6-.93,1.6-.93c.43.41.96.72,1.55.9v1.85l-1.74,1c-.52.3-.7.96-.4,1.48.3.52.96.7,1.48.4l.65-.38v2.44c0,.6.49,1.08,1.08,1.08s1.08-.49,1.08-1.08v-2.44l.65.38c.17.1.36.15.54.15.37,0,.74-.19.94-.54.3-.52.12-1.18-.4-1.48l-1.74-1v-1.85c.59-.17,1.11-.48,1.55-.9l1.6.93v2c0,.6.48,1.08,1.08,1.08s1.08-.48,1.08-1.08v-.75l2.11,1.22c.17.1.36.15.54.15.37,0,.74-.19.94-.54.3-.52.12-1.18-.4-1.48Zm-9.59-2.63c-.91,0-1.66-.74-1.66-1.66s.74-1.66,1.66-1.66,1.66.74,1.66,1.66-.74,1.66-1.66,1.66Z"/>
        <path class="cls-3" d="m76.33,64.54l-2.11-1.22.65-.38c.52-.3.7-.96.4-1.48-.3-.52-.96-.7-1.48-.4l-1.74,1-1.6-.92c.07-.29.11-.59.11-.89s-.04-.61-.11-.89l1.6-.93,1.74,1c.17.1.36.15.54.15.37,0,.74-.19.94-.54.3-.52.12-1.18-.4-1.48l-.65-.38,2.11-1.22c.52-.3.7-.96.4-1.48-.3-.52-.96-.7-1.48-.4l-2.11,1.22v-.75c0-.6-.48-1.08-1.08-1.08h0c-.6,0-1.08.48-1.08,1.08v2s-1.6.93-1.6.93c-.43-.41-.96-.72-1.55-.9v-1.85l1.74-1c.52-.3.69-.96.4-1.48-.3-.52-.96-.7-1.48-.4l-.65.38v-2.44c0-.6-.48-1.08-1.08-1.08s-1.08.48-1.08,1.08v2.44l-.65-.38c-.52-.3-1.18-.12-1.48.4-.3.52-.12,1.18.4,1.48l1.74,1v1.85c-.59.17-1.11.49-1.55.9l-1.6-.93v-2c0-.6-.49-1.08-1.08-1.08s-1.08.48-1.08,1.08v.75l-2.11-1.22c-.52-.3-1.18-.12-1.48.4-.3.52-.12,1.18.4,1.48l2.11,1.22-.65.38c-.52.3-.7.96-.4,1.48.2.35.56.54.94.54.18,0,.37-.05.54-.15l1.74-1,1.6.93c-.07.29-.11.59-.11.89s.04.61.11.89l-1.6.92-1.74-1c-.52-.3-1.18-.12-1.48.4-.3.52-.12,1.18.4,1.48l.65.38-2.11,1.22c-.52.3-.7.96-.4,1.48.2.35.56.54.94.54.18,0,.37-.05.54-.15l2.11-1.22v.75c0,.6.49,1.08,1.08,1.08s1.08-.48,1.08-1.08v-2s1.6-.93,1.6-.93c.43.41.96.72,1.55.9v1.85l-1.74,1c-.52.3-.7.96-.4,1.48.3.52.96.7,1.48.4l.65-.38v2.44c0,.6.49,1.08,1.08,1.08s1.08-.49,1.08-1.08v-2.44l.65.38c.17.1.36.15.54.15.37,0,.74-.19.94-.54.3-.52.12-1.18-.4-1.48l-1.74-1v-1.85c.59-.17,1.11-.48,1.55-.9l1.6.93v2c0,.6.48,1.08,1.08,1.08s1.08-.48,1.08-1.08v-.75l2.11,1.22c.17.1.36.15.54.15.37,0,.74-.19.94-.54.3-.52.12-1.18-.4-1.48Zm-9.59-2.63c-.91,0-1.66-.74-1.66-1.66s.74-1.66,1.66-1.66,1.66.74,1.66,1.66-.74,1.66-1.66,1.66Z"/>
        <path class="cls-7" d="m55.06,82.58l-1.61-.93.5-.29c.4-.23.53-.73.3-1.13-.23-.39-.73-.53-1.13-.3l-1.32.76-1.22-.7c.05-.22.08-.45.08-.68s-.03-.46-.08-.68l1.22-.71,1.32.76c.13.08.27.11.41.11.29,0,.56-.15.72-.41.23-.39.09-.9-.3-1.13l-.5-.29,1.61-.93c.39-.23.53-.73.3-1.13-.23-.4-.73-.53-1.13-.3l-1.61.93v-.57c0-.46-.37-.83-.82-.83h0c-.46,0-.83.37-.83.83v1.53s-1.22.71-1.22.71c-.33-.31-.73-.55-1.18-.68v-1.41l1.32-.76c.4-.23.53-.73.3-1.13-.23-.4-.73-.53-1.13-.3l-.5.29v-1.86c0-.46-.37-.83-.83-.83s-.83.37-.83.83v1.86l-.5-.29c-.39-.23-.9-.09-1.13.3-.23.39-.09.9.3,1.13l1.32.76v1.41c-.45.13-.85.37-1.18.68l-1.22-.71v-1.53c0-.46-.37-.83-.83-.83s-.83.37-.83.83v.58l-1.61-.93c-.4-.23-.9-.09-1.13.3-.23.39-.09.9.3,1.13l1.61.93-.5.29c-.39.23-.53.73-.3,1.13.15.26.43.41.72.41.14,0,.28-.04.41-.11l1.32-.76,1.22.71c-.05.22-.08.45-.08.68s.03.46.08.68l-1.22.7-1.32-.76c-.4-.23-.9-.09-1.13.3-.23.39-.09.9.3,1.13l.5.29-1.61.93c-.4.23-.53.73-.3,1.13.15.27.43.41.72.41.14,0,.28-.04.41-.11l1.61-.93v.57c0,.46.37.83.83.83s.83-.37.83-.83v-1.53s1.22-.71,1.22-.71c.33.31.73.55,1.18.68v1.41l-1.32.76c-.4.23-.53.73-.3,1.13.23.4.73.53,1.13.3l.5-.29v1.86c0,.46.37.83.83.83s.83-.37.83-.83v-1.86l.5.29c.13.08.27.11.41.11.28,0,.56-.15.72-.41.23-.39.09-.9-.3-1.13l-1.32-.76v-1.41c.45-.13.85-.37,1.18-.68l1.22.71v1.53c0,.46.37.83.83.83s.83-.37.83-.83v-.57l1.61.93c.13.08.27.11.41.11.29,0,.56-.15.72-.41.23-.4.09-.9-.3-1.13Zm-7.31-2c-.7,0-1.26-.57-1.26-1.26s.57-1.26,1.26-1.26,1.26.57,1.26,1.26-.57,1.26-1.26,1.26Z"/>
        <g>
          <path class="cls-8" d="m30.11,0c14.18,0,26.07,9.81,29.26,23.01,2.58-1.25,5.46-1.97,8.51-1.97,10.82,0,19.59,8.77,19.59,19.59s-8.77,19.59-19.59,19.59H30.11C13.48,60.22,0,46.74,0,30.11S13.48,0,30.11,0Z"/>
          <path class="cls-6" d="m26.26,28.77c7.84-6.36,10.9-16.05,6.84-21.63-4.07-5.59-13.72-4.96-21.56,1.39C3.69,14.9.63,24.59,4.69,30.17c4.07,5.59,13.72,4.96,21.56-1.39Z"/>
          <path class="cls-4" d="m65.71,37.04c4.31-3.5,5.99-8.82,3.76-11.89-2.23-3.07-7.54-2.73-11.85.77-4.31,3.5-5.99,8.82-3.76,11.89,2.24,3.07,7.54,2.73,11.85-.77Z"/>
          <path class="cls-2" d="m75.27,44.65c4.74-4.79,9.63-6.67,10.94-4.19,1.3,2.48-1.49,8.37-6.23,13.17-4.74,4.79-9.64,6.67-10.94,4.19-1.3-2.48,1.49-8.38,6.23-13.17Z"/>
        </g>
      </g>
    </g>
  </g>
</svg>