<?xml version="1.0" encoding="UTF-8"?>
<svg xmlns="http://www.w3.org/2000/svg" xmlns:xlink="http://www.w3.org/1999/xlink" viewBox="0 0 89.42 99.77">
  <defs>
    <style>
      .cls-1 {
        fill: url(#radial-gradient-16);
      }

      .cls-1, .cls-2, .cls-3, .cls-4, .cls-5, .cls-6, .cls-7, .cls-8, .cls-9, .cls-10, .cls-11, .cls-12, .cls-13, .cls-14, .cls-15, .cls-16, .cls-17, .cls-18, .cls-19, .cls-20, .cls-21, .cls-22, .cls-23, .cls-24, .cls-25, .cls-26 {
        stroke-width: 0px;
      }

      .cls-1, .cls-3, .cls-5, .cls-6, .cls-8, .cls-11, .cls-14, .cls-16, .cls-17, .cls-26 {
        mix-blend-mode: overlay;
      }

      .cls-2 {
        fill: url(#radial-gradient-8);
      }

      .cls-27 {
        isolation: isolate;
      }

      .cls-3 {
        fill: url(#radial-gradient-18);
      }

      .cls-4 {
        fill: url(#radial-gradient-12);
      }

      .cls-5 {
        fill: url(#radial-gradient-20);
      }

      .cls-6 {
        fill: url(#radial-gradient-2);
      }

      .cls-7 {
        fill: url(#radial-gradient-19);
      }

      .cls-8 {
        fill: url(#Degradado_sin_nombre_34-2);
        opacity: .2;
      }

      .cls-9 {
        fill: url(#radial-gradient-17);
      }

      .cls-10 {
        fill: url(#radial-gradient-21);
      }

      .cls-11 {
        fill: url(#radial-gradient-24);
      }

      .cls-12 {
        fill: url(#radial-gradient-7);
      }

      .cls-13 {
        fill: url(#radial-gradient-5);
      }

      .cls-14 {
        fill: url(#radial-gradient-13);
      }

      .cls-15 {
        fill: url(#radial-gradient);
      }

      .cls-16 {
        fill: url(#radial-gradient-14);
      }

      .cls-16, .cls-26 {
        opacity: .4;
      }

      .cls-17 {
        fill: url(#radial-gradient-22);
      }

      .cls-18 {
        fill: url(#radial-gradient-10);
      }

      .cls-19 {
        fill: url(#radial-gradient-6);
      }

      .cls-20 {
        fill: url(#radial-gradient-15);
      }

      .cls-21 {
        fill: url(#radial-gradient-9);
      }

      .cls-22 {
        fill: url(#radial-gradient-3);
      }

      .cls-23 {
        fill: url(#radial-gradient-11);
      }

      .cls-24 {
        fill: url(#radial-gradient-4);
      }

      .cls-25 {
        fill: url(#radial-gradient-23);
      }

      .cls-26 {
        fill: url(#Degradado_sin_nombre_34);
      }
    </style>
    <radialGradient id="radial-gradient" cx="-140.44" cy="20.57" fx="-140.44" fy="20.57" r="40.6" gradientTransform="translate(-80.11) rotate(-180) scale(1 -1)" gradientUnits="userSpaceOnUse">
      <stop offset="0" stop-color="#fff8c8"/>
      <stop offset=".16" stop-color="#fee434"/>
      <stop offset="1" stop-color="#f47525"/>
    </radialGradient>
    <radialGradient id="radial-gradient-2" cx="1092.67" cy="-1894.18" fx="1092.67" fy="-1894.18" r="6.09" gradientTransform="translate(-2085.14 -3722.06) rotate(126.03) scale(1.43 2.08) skewX(-4.38)" gradientUnits="userSpaceOnUse">
      <stop offset="0" stop-color="#fff"/>
      <stop offset=".1" stop-color="#fff" stop-opacity=".85"/>
      <stop offset=".29" stop-color="#fff" stop-opacity=".59"/>
      <stop offset=".47" stop-color="#fff" stop-opacity=".38"/>
      <stop offset=".63" stop-color="#fff" stop-opacity=".22"/>
      <stop offset=".78" stop-color="#fff" stop-opacity=".1"/>
      <stop offset=".91" stop-color="#fff" stop-opacity=".03"/>
      <stop offset="1" stop-color="#fff" stop-opacity="0"/>
    </radialGradient>
    <radialGradient id="Degradado_sin_nombre_34" data-name="Degradado sin nombre 34" cx="-2995.27" cy="2917.74" fx="-2995.27" fy="2917.74" r="5.88" gradientTransform="translate(-4113.87 -1126.72) rotate(-136.79) scale(1.61 .68) skewX(11.83)" gradientUnits="userSpaceOnUse">
      <stop offset="0" stop-color="#fff"/>
      <stop offset=".1" stop-color="#fff" stop-opacity=".85"/>
      <stop offset=".29" stop-color="#fff" stop-opacity=".59"/>
      <stop offset=".47" stop-color="#fff" stop-opacity=".38"/>
      <stop offset=".63" stop-color="#fff" stop-opacity=".22"/>
      <stop offset=".78" stop-color="#fff" stop-opacity=".1"/>
      <stop offset=".91" stop-color="#fff" stop-opacity=".03"/>
      <stop offset="1" stop-color="#fff" stop-opacity="0"/>
    </radialGradient>
    <radialGradient id="radial-gradient-3" cx="55.91" cy="1.31" fx="55.91" fy="1.31" r="7.06" gradientTransform="matrix(1,0,0,1,0,0)" xlink:href="#radial-gradient"/>
    <radialGradient id="radial-gradient-4" cx="454.17" cy="-229.47" fx="454.17" fy="-229.47" r="7.06" gradientTransform="translate(-126.22 493.95) rotate(-45)" xlink:href="#radial-gradient"/>
    <radialGradient id="radial-gradient-5" cx="898.89" cy="-111.23" fx="898.89" fy="-111.23" r="7.06" gradientTransform="translate(133.99 932.4) rotate(-90)" xlink:href="#radial-gradient"/>
    <radialGradient id="radial-gradient-6" cx="1129.84" cy="287.03" fx="1129.84" fy="287.03" r="7.06" gradientTransform="translate(627.94 1058.63) rotate(-135)" xlink:href="#radial-gradient"/>
    <radialGradient id="radial-gradient-7" cx="1011.43" cy="731.75" fx="1011.43" fy="731.75" r="7.06" gradientTransform="translate(1066.39 798.41) rotate(-180)" xlink:href="#radial-gradient"/>
    <radialGradient id="radial-gradient-8" cx="613.33" cy="962.7" fx="613.33" fy="962.7" r="7.06" gradientTransform="translate(1192.62 304.46) rotate(135)" xlink:href="#radial-gradient"/>
    <radialGradient id="radial-gradient-9" cx="168.44" cy="844.3" fx="168.44" fy="844.3" r="7.06" gradientTransform="translate(932.41 -133.99) rotate(90)" xlink:href="#radial-gradient"/>
    <radialGradient id="radial-gradient-10" cx="-62.34" cy="446.2" fx="-62.34" fy="446.2" r="7.06" gradientTransform="translate(438.46 -260.21) rotate(45)" xlink:href="#radial-gradient"/>
    <radialGradient id="radial-gradient-11" cx="1361.85" cy="27.52" fx="1361.85" fy="27.52" r="69.73" gradientTransform="translate(1379.4) rotate(-180) scale(1 -1)" gradientUnits="userSpaceOnUse">
      <stop offset="0" stop-color="#fff"/>
      <stop offset=".2" stop-color="#dbf1fa"/>
      <stop offset="1" stop-color="#8fbee6"/>
    </radialGradient>
    <radialGradient id="radial-gradient-12" cx="49.67" cy="33.27" fx="49.67" fy="33.27" r="43.38" gradientUnits="userSpaceOnUse">
      <stop offset="0" stop-color="#fee434"/>
      <stop offset=".08" stop-color="#fcce31" stop-opacity=".81"/>
      <stop offset=".18" stop-color="#f9b72d" stop-opacity=".6"/>
      <stop offset=".28" stop-color="#f8a32b" stop-opacity=".41"/>
      <stop offset=".38" stop-color="#f69228" stop-opacity=".27"/>
      <stop offset=".48" stop-color="#f58527" stop-opacity=".15"/>
      <stop offset=".58" stop-color="#f47c25" stop-opacity=".07"/>
      <stop offset=".68" stop-color="#f47625" stop-opacity=".02"/>
      <stop offset=".77" stop-color="#f47525" stop-opacity="0"/>
    </radialGradient>
    <radialGradient id="radial-gradient-13" cx="525.58" cy="-2402.07" fx="525.58" fy="-2402.07" r="8.18" gradientTransform="translate(3464.55 -3722.06) rotate(53.97) scale(1.43 -2.08) skewX(-4.38)" xlink:href="#radial-gradient-2"/>
    <radialGradient id="radial-gradient-14" cx="549.74" cy="-2389.95" fx="549.74" fy="-2389.95" r="4.5" gradientTransform="translate(3464.55 -3722.06) rotate(53.97) scale(1.43 -2.08) skewX(-4.38)" xlink:href="#radial-gradient-2"/>
    <radialGradient id="Degradado_sin_nombre_34-2" data-name="Degradado sin nombre 34" cx="1475.38" cy="104.81" fx="1475.38" fy="104.81" r="4.7" gradientTransform="translate(1260.14 549.94) rotate(-146.99) scale(.84 -2.3) skewX(11.81)" xlink:href="#Degradado_sin_nombre_34"/>
    <radialGradient id="radial-gradient-15" cx="-247.85" cy="15.94" fx="-247.85" fy="15.94" r="9.89" gradientTransform="translate(232.97 206.9) rotate(30)" gradientUnits="userSpaceOnUse">
      <stop offset="0" stop-color="#d7eff9"/>
      <stop offset=".2" stop-color="#dbf1fa"/>
      <stop offset="1" stop-color="#8fbee6"/>
    </radialGradient>
    <radialGradient id="radial-gradient-16" cx="1225.29" cy="-1770.34" fx="1225.29" fy="-1770.34" r="1.55" gradientTransform="translate(288.56 -4058.88) rotate(156.04) scale(1.43 2.08) skewX(-4.38)" xlink:href="#radial-gradient-2"/>
    <radialGradient id="radial-gradient-17" cx="-228.24" cy="4.62" fx="-228.24" fy="4.62" r="9.89" xlink:href="#radial-gradient-15"/>
    <radialGradient id="radial-gradient-18" cx="1210.44" cy="-1774.76" fx="1210.44" fy="-1774.76" r="1.55" gradientTransform="translate(288.56 -4058.88) rotate(156.04) scale(1.43 2.08) skewX(-4.38)" xlink:href="#radial-gradient-2"/>
    <radialGradient id="radial-gradient-19" cx="-208.62" cy="-6.71" fx="-208.62" fy="-6.71" r="9.89" xlink:href="#radial-gradient-15"/>
    <radialGradient id="radial-gradient-20" cx="1195.6" cy="-1779.18" fx="1195.6" fy="-1779.18" r="1.55" gradientTransform="translate(288.56 -4058.88) rotate(156.04) scale(1.43 2.08) skewX(-4.38)" xlink:href="#radial-gradient-2"/>
    <radialGradient id="radial-gradient-21" cx="-243.15" cy="-.87" fx="-243.15" fy="-.87" r="14.06" xlink:href="#radial-gradient-15"/>
    <radialGradient id="radial-gradient-22" cx="1213.83" cy="-1767.33" fx="1213.83" fy="-1767.33" r="2.2" gradientTransform="translate(288.56 -4058.88) rotate(156.04) scale(1.43 2.08) skewX(-4.38)" xlink:href="#radial-gradient-2"/>
    <radialGradient id="radial-gradient-23" cx="-221.99" cy="-13.09" fx="-221.99" fy="-13.09" r="14.06" xlink:href="#radial-gradient-15"/>
    <radialGradient id="radial-gradient-24" cx="1197.81" cy="-1772.1" fx="1197.81" fy="-1772.1" r="2.2" gradientTransform="translate(288.56 -4058.88) rotate(156.04) scale(1.43 2.08) skewX(-4.38)" xlink:href="#radial-gradient-2"/>
  </defs>
  <g class="cls-27">
    <g id="Layer_1" data-name="Layer 1">
      <g>
        <g>
          <path class="cls-15" d="m34.05,33.98c0,11.81,9.58,21.39,21.39,21.39s21.39-9.58,21.39-21.39-9.58-21.38-21.39-21.38-21.39,9.57-21.39,21.38Z"/>
          <g>
            <path class="cls-6" d="m58.69,31.78c-5.45-4.42-7.58-11.15-4.75-15.03,2.82-3.88,9.53-3.45,14.98.97,5.45,4.42,7.57,11.15,4.75,15.03-2.83,3.88-9.53,3.45-14.98-.97Z"/>
            <path class="cls-26" d="m36.53,38.71c.72-2.36,4.39-1.38,8.19,2.19,3.81,3.58,6.3,8.39,5.59,10.76-.72,2.36-4.39,1.39-8.2-2.19-3.8-3.58-6.3-8.39-5.59-10.76Z"/>
          </g>
          <path class="cls-22" d="m58.03,6.27c0,1.43-1.16,2.59-2.59,2.59h0c-1.43,0-2.59-1.16-2.59-2.59v-3.68c0-1.43,1.16-2.59,2.59-2.59h0c1.43,0,2.59,1.16,2.59,2.59v3.68Z"/>
          <path class="cls-24" d="m37.67,12.56c1.01,1.01,1.01,2.66,0,3.67h0c-1.01,1.01-2.65,1.01-3.67,0l-2.6-2.6c-1.01-1.01-1.01-2.66,0-3.67h0c1.01-1.01,2.66-1.01,3.67,0l2.6,2.6Z"/>
          <path class="cls-13" d="m27.72,31.39c1.43,0,2.59,1.16,2.59,2.59h0c0,1.43-1.16,2.59-2.59,2.59h-3.68c-1.43,0-2.59-1.16-2.6-2.59h0c0-1.43,1.16-2.59,2.6-2.59h3.68Z"/>
          <path class="cls-19" d="m34.01,51.74c1.01-1.01,2.66-1.01,3.67,0h0c1.01,1.01,1.01,2.65,0,3.67l-2.6,2.6c-1.01,1.01-2.66,1.01-3.67,0h0c-1.01-1.01-1.01-2.66,0-3.67l2.6-2.6Z"/>
          <path class="cls-12" d="m52.84,61.69c0-1.43,1.16-2.59,2.59-2.59h0c1.43,0,2.59,1.16,2.59,2.59v3.68c0,1.43-1.16,2.59-2.59,2.59h0c-1.43,0-2.59-1.16-2.59-2.59v-3.68Z"/>
          <path class="cls-2" d="m73.2,55.41c-1.01-1.01-1.01-2.66,0-3.67h0c1.01-1.01,2.65-1.01,3.67,0l2.6,2.6c1.01,1.01,1.01,2.66,0,3.67h0c-1.01,1.01-2.66,1.01-3.67,0l-2.6-2.6Z"/>
          <path class="cls-21" d="m83.14,36.58c-1.43,0-2.59-1.16-2.59-2.59h0c0-1.43,1.16-2.59,2.59-2.59h3.68c1.43,0,2.59,1.16,2.6,2.59h0c0,1.43-1.16,2.59-2.6,2.59h-3.68Z"/>
          <path class="cls-18" d="m76.86,16.22c-1.01,1.01-2.66,1.01-3.67,0h0c-1.01-1.01-1.01-2.65,0-3.67l2.6-2.6c1.01-1.01,2.66-1.01,3.67,0h0c1.01,1.01,1.01,2.66,0,3.67l-2.6,2.6Z"/>
        </g>
        <g>
          <path class="cls-23" d="m28.08,19.81c13.23,0,24.31,9.15,27.29,21.46,2.4-1.16,5.09-1.84,7.94-1.84,10.09,0,18.27,8.18,18.27,18.27s-8.18,18.27-18.27,18.27H28.08c-15.51,0-28.08-12.57-28.08-28.08s12.57-28.08,28.08-28.08Z"/>
          <path class="cls-4" d="m28.08,19.81c13.23,0,24.31,9.15,27.29,21.46,2.4-1.16,5.09-1.84,7.94-1.84,10.09,0,18.27,8.18,18.27,18.27s-8.18,18.27-18.27,18.27H28.08c-15.51,0-28.08-12.57-28.08-28.08s12.57-28.08,28.08-28.08Z"/>
          <path class="cls-14" d="m24.49,46.65c7.31-5.93,10.17-14.97,6.38-20.18-3.79-5.21-12.79-4.63-20.11,1.3-7.31,5.93-10.16,14.97-6.37,20.18,3.79,5.21,12.8,4.63,20.11-1.3Z"/>
          <path class="cls-16" d="m61.29,54.36c4.02-3.26,5.59-8.23,3.5-11.09-2.08-2.87-7.03-2.54-11.05.71-4.02,3.26-5.58,8.23-3.5,11.09,2.09,2.87,7.04,2.54,11.05-.71Z"/>
          <path class="cls-8" d="m70.2,61.46c4.42-4.47,8.98-6.22,10.2-3.91,1.21,2.31-1.39,7.81-5.81,12.28-4.42,4.47-8.99,6.22-10.2,3.91-1.21-2.31,1.39-7.81,5.81-12.28Z"/>
        </g>
      </g>
      <g>
        <g>
          <g>
            <path class="cls-20" d="m15.86,97.71c-1.14,1.97-3.65,2.64-5.62,1.5-1.97-1.13-2.64-3.65-1.5-5.62,1.13-1.97,8.16-5.91,8.16-5.91,0,0,.1,8.05-1.04,10.02Z"/>
            <path class="cls-1" d="m8.86,97.03c-.64-1.66-.25-3.42.87-3.91,1.12-.5,2.54.45,3.18,2.12.64,1.67.25,3.42-.87,3.91-1.12.5-2.54-.45-3.18-2.12Z"/>
          </g>
          <g>
            <path class="cls-9" d="m38.51,97.71c-1.13,1.97-3.65,2.64-5.62,1.5-1.97-1.13-2.64-3.65-1.51-5.62,1.14-1.97,8.16-5.91,8.16-5.91,0,0,.1,8.05-1.04,10.02Z"/>
            <path class="cls-3" d="m31.51,97.03c-.64-1.66-.25-3.42.87-3.91,1.12-.5,2.54.45,3.17,2.12.64,1.67.25,3.42-.87,3.91-1.12.5-2.54-.45-3.17-2.12Z"/>
          </g>
          <g>
            <path class="cls-7" d="m61.16,97.71c-1.13,1.97-3.65,2.64-5.62,1.5-1.97-1.13-2.64-3.65-1.51-5.62,1.14-1.97,8.16-5.91,8.16-5.91,0,0,.1,8.05-1.04,10.02Z"/>
            <path class="cls-5" d="m54.16,97.03c-.64-1.66-.25-3.42.87-3.91,1.12-.5,2.54.45,3.17,2.12.64,1.67.25,3.42-.87,3.91-1.12.5-2.54-.45-3.17-2.12Z"/>
          </g>
        </g>
        <g>
          <g>
            <path class="cls-10" d="m30.66,85.9c-1.62,2.8-5.19,3.75-7.99,2.14-2.8-1.61-3.75-5.19-2.14-7.98,1.61-2.8,11.59-8.4,11.59-8.4,0,0,.14,11.44-1.47,14.24Z"/>
            <path class="cls-17" d="m20.7,84.92c-.91-2.37-.36-4.86,1.23-5.56,1.59-.71,3.61.64,4.51,3.01.91,2.37.35,4.86-1.23,5.56-1.59.71-3.61-.64-4.51-3.01Z"/>
          </g>
          <g>
            <path class="cls-25" d="m55.1,85.9c-1.61,2.8-5.19,3.75-7.98,2.14-2.8-1.61-3.75-5.19-2.14-7.98,1.62-2.8,11.6-8.4,11.6-8.4,0,0,.14,11.44-1.47,14.24Z"/>
            <path class="cls-11" d="m45.15,84.92c-.91-2.37-.36-4.86,1.23-5.56,1.58-.71,3.61.64,4.51,3.01.91,2.37.36,4.86-1.23,5.56-1.59.71-3.61-.64-4.51-3.01Z"/>
          </g>
        </g>
      </g>
    </g>
  </g>
</svg>