<?xml version="1.0" encoding="UTF-8"?>
<svg xmlns="http://www.w3.org/2000/svg" xmlns:xlink="http://www.w3.org/1999/xlink" viewBox="0 0 95.19 96.77">
  <defs>
    <style>
      .cls-1 {
        fill: url(#radial-gradient-6);
        opacity: .4;
      }

      .cls-1, .cls-2, .cls-3, .cls-4, .cls-5, .cls-6, .cls-7 {
        stroke-width: 0px;
      }

      .cls-1, .cls-2, .cls-6 {
        mix-blend-mode: overlay;
      }

      .cls-8 {
        isolation: isolate;
      }

      .cls-2 {
        fill: url(#Degradado_sin_nombre_34);
        opacity: .2;
      }

      .cls-3 {
        fill: url(#radial-gradient-2);
      }

      .cls-4 {
        fill: url(#radial-gradient);
      }

      .cls-5 {
        fill: url(#radial-gradient-3);
      }

      .cls-6 {
        fill: url(#radial-gradient-5);
      }

      .cls-7 {
        fill: url(#radial-gradient-4);
      }
    </style>
    <radialGradient id="radial-gradient" cx="37.31" cy="65.98" fx="37.31" fy="65.98" r="19.67" gradientUnits="userSpaceOnUse">
      <stop offset="0" stop-color="#3dc4e3"/>
      <stop offset="1" stop-color="#2956a6"/>
    </radialGradient>
    <radialGradient id="radial-gradient-2" cx="73.71" cy="64.32" fx="73.71" fy="64.32" xlink:href="#radial-gradient"/>
    <radialGradient id="radial-gradient-3" cx="53.14" cy="84.47" fx="53.14" fy="84.47" r="15" xlink:href="#radial-gradient"/>
    <radialGradient id="radial-gradient-4" cx="1353.62" cy="9" fx="1353.62" fy="9" r="81.35" gradientTransform="translate(1374.1) rotate(-180) scale(1 -1)" gradientUnits="userSpaceOnUse">
      <stop offset="0" stop-color="#fff"/>
      <stop offset=".2" stop-color="#dbf1fa"/>
      <stop offset="1" stop-color="#8fbee6"/>
    </radialGradient>
    <radialGradient id="radial-gradient-5" cx="514.66" cy="-2391.55" fx="514.66" fy="-2391.55" r="9.55" gradientTransform="translate(3459.62 -3712.57) rotate(53.97) scale(1.43 -2.08) skewX(-4.38)" gradientUnits="userSpaceOnUse">
      <stop offset="0" stop-color="#fff"/>
      <stop offset=".1" stop-color="#fff" stop-opacity=".85"/>
      <stop offset=".29" stop-color="#fff" stop-opacity=".59"/>
      <stop offset=".47" stop-color="#fff" stop-opacity=".38"/>
      <stop offset=".63" stop-color="#fff" stop-opacity=".22"/>
      <stop offset=".78" stop-color="#fff" stop-opacity=".1"/>
      <stop offset=".91" stop-color="#fff" stop-opacity=".03"/>
      <stop offset="1" stop-color="#fff" stop-opacity="0"/>
    </radialGradient>
    <radialGradient id="radial-gradient-6" cx="542.85" cy="-2377.41" fx="542.85" fy="-2377.41" r="5.25" xlink:href="#radial-gradient-5"/>
    <radialGradient id="Degradado_sin_nombre_34" data-name="Degradado sin nombre 34" cx="1458.62" cy="85.48" fx="1458.62" fy="85.48" r="5.49" gradientTransform="translate(1233.33 565.49) rotate(-146.99) scale(.84 -2.3) skewX(11.81)" gradientUnits="userSpaceOnUse">
      <stop offset="0" stop-color="#fff"/>
      <stop offset=".1" stop-color="#fff" stop-opacity=".85"/>
      <stop offset=".29" stop-color="#fff" stop-opacity=".59"/>
      <stop offset=".47" stop-color="#fff" stop-opacity=".38"/>
      <stop offset=".63" stop-color="#fff" stop-opacity=".22"/>
      <stop offset=".78" stop-color="#fff" stop-opacity=".1"/>
      <stop offset=".91" stop-color="#fff" stop-opacity=".03"/>
      <stop offset="1" stop-color="#fff" stop-opacity="0"/>
    </radialGradient>
  </defs>
  <g class="cls-8">
    <g id="Layer_1" data-name="Layer 1">
      <g>
        <path class="cls-4" d="m40.29,74.86l-2.11-1.22.65-.38c.52-.3.7-.96.4-1.48-.3-.52-.96-.7-1.48-.4l-1.74,1-1.6-.92c.07-.29.11-.59.11-.89s-.04-.61-.11-.89l1.6-.93,1.74,1c.17.1.36.15.54.15.37,0,.74-.19.94-.54.3-.52.12-1.18-.4-1.48l-.65-.38,2.11-1.22c.52-.3.7-.96.4-1.48-.3-.52-.96-.7-1.48-.4l-2.11,1.22v-.75c0-.6-.48-1.08-1.08-1.08h0c-.6,0-1.08.48-1.08,1.08v2s-1.6.93-1.6.93c-.43-.41-.96-.72-1.55-.9v-1.85l1.74-1c.52-.3.69-.96.4-1.48-.3-.52-.96-.7-1.48-.4l-.65.38v-2.44c0-.6-.48-1.08-1.08-1.08s-1.08.48-1.08,1.08v2.44l-.65-.38c-.52-.3-1.18-.12-1.48.4-.3.52-.12,1.18.4,1.48l1.74,1v1.85c-.59.17-1.11.49-1.55.9l-1.6-.93v-2c0-.6-.49-1.08-1.08-1.08s-1.08.48-1.08,1.08v.75l-2.11-1.22c-.52-.3-1.18-.12-1.48.4-.3.52-.12,1.18.4,1.48l2.11,1.22-.65.38c-.52.3-.7.96-.4,1.48.2.35.56.54.94.54.18,0,.37-.05.54-.15l1.74-1,1.6.93c-.07.29-.11.59-.11.89s.04.61.11.89l-1.6.92-1.74-1c-.52-.3-1.18-.12-1.48.4-.3.52-.12,1.18.4,1.48l.65.38-2.11,1.22c-.52.3-.7.96-.4,1.48.2.35.56.54.94.54.18,0,.37-.05.54-.15l2.11-1.22v.75c0,.6.49,1.08,1.08,1.08s1.08-.48,1.08-1.08v-2s1.6-.93,1.6-.93c.43.41.96.72,1.55.9v1.85l-1.74,1c-.52.3-.7.96-.4,1.48.3.52.96.7,1.48.4l.65-.38v2.44c0,.6.49,1.08,1.08,1.08s1.08-.49,1.08-1.08v-2.44l.65.38c.17.1.36.15.54.15.37,0,.74-.19.94-.54.3-.52.12-1.18-.4-1.48l-1.74-1v-1.85c.59-.17,1.11-.48,1.55-.9l1.6.93v2c0,.6.48,1.08,1.08,1.08s1.08-.48,1.08-1.08v-.75l2.11,1.22c.17.1.36.15.54.15.37,0,.74-.19.94-.54.3-.52.12-1.18-.4-1.48Zm-9.59-2.63c-.91,0-1.66-.74-1.66-1.66s.74-1.66,1.66-1.66,1.66.74,1.66,1.66-.74,1.66-1.66,1.66Z"/>
        <path class="cls-3" d="m76.69,73.21l-2.11-1.22.65-.38c.52-.3.7-.96.4-1.48-.3-.52-.96-.7-1.48-.4l-1.74,1-1.6-.92c.07-.29.11-.59.11-.89s-.04-.61-.11-.89l1.6-.93,1.74,1c.17.1.36.15.54.15.37,0,.74-.19.94-.54.3-.52.12-1.18-.4-1.48l-.65-.38,2.11-1.22c.52-.3.7-.96.4-1.48-.3-.52-.96-.7-1.48-.4l-2.11,1.22v-.75c0-.6-.48-1.08-1.08-1.08h0c-.6,0-1.08.48-1.08,1.08v2s-1.6.93-1.6.93c-.43-.41-.96-.72-1.55-.9v-1.85l1.74-1c.52-.3.69-.96.4-1.48-.3-.52-.96-.7-1.48-.4l-.65.38v-2.44c0-.6-.48-1.08-1.08-1.08s-1.08.48-1.08,1.08v2.44l-.65-.38c-.52-.3-1.18-.12-1.48.4-.3.52-.12,1.18.4,1.48l1.74,1v1.85c-.59.17-1.11.49-1.55.9l-1.6-.93v-2c0-.6-.49-1.08-1.08-1.08s-1.08.48-1.08,1.08v.75l-2.11-1.22c-.52-.3-1.18-.12-1.48.4-.3.52-.12,1.18.4,1.48l2.11,1.22-.65.38c-.52.3-.7.96-.4,1.48.2.35.56.54.94.54.18,0,.37-.05.54-.15l1.74-1,1.6.93c-.07.29-.11.59-.11.89s.04.61.11.89l-1.6.92-1.74-1c-.52-.3-1.18-.12-1.48.4-.3.52-.12,1.18.4,1.48l.65.38-2.11,1.22c-.52.3-.7.96-.4,1.48.2.35.56.54.94.54.18,0,.37-.05.54-.15l2.11-1.22v.75c0,.6.49,1.08,1.08,1.08s1.08-.48,1.08-1.08v-2s1.6-.93,1.6-.93c.43.41.96.72,1.55.9v1.85l-1.74,1c-.52.3-.7.96-.4,1.48.3.52.96.7,1.48.4l.65-.38v2.44c0,.6.49,1.08,1.08,1.08s1.08-.49,1.08-1.08v-2.44l.65.38c.17.1.36.15.54.15.37,0,.74-.19.94-.54.3-.52.12-1.18-.4-1.48l-1.74-1v-1.85c.59-.17,1.11-.48,1.55-.9l1.6.93v2c0,.6.48,1.08,1.08,1.08s1.08-.48,1.08-1.08v-.75l2.11,1.22c.17.1.36.15.54.15.37,0,.74-.19.94-.54.3-.52.12-1.18-.4-1.48Zm-9.59-2.63c-.91,0-1.66-.74-1.66-1.66s.74-1.66,1.66-1.66,1.66.74,1.66,1.66-.74,1.66-1.66,1.66Z"/>
        <path class="cls-5" d="m55.41,91.25l-1.61-.93.5-.29c.4-.23.53-.73.3-1.13-.23-.39-.73-.53-1.13-.3l-1.32.76-1.22-.7c.05-.22.08-.45.08-.68s-.03-.46-.08-.68l1.22-.71,1.32.76c.13.08.27.11.41.11.29,0,.56-.15.72-.41.23-.39.09-.9-.3-1.13l-.5-.29,1.61-.93c.39-.23.53-.73.3-1.13-.23-.4-.73-.53-1.13-.3l-1.61.93v-.57c0-.46-.37-.83-.82-.83h0c-.46,0-.83.37-.83.83v1.53s-1.22.71-1.22.71c-.33-.31-.73-.55-1.18-.68v-1.41l1.32-.76c.4-.23.53-.73.3-1.13-.23-.4-.73-.53-1.13-.3l-.5.29v-1.86c0-.46-.37-.83-.83-.83s-.83.37-.83.83v1.86l-.5-.29c-.39-.23-.9-.09-1.13.3-.23.39-.09.9.3,1.13l1.32.76v1.41c-.45.13-.85.37-1.18.68l-1.22-.71v-1.53c0-.46-.37-.83-.83-.83s-.83.37-.83.83v.58l-1.61-.93c-.4-.23-.9-.09-1.13.3-.23.39-.09.9.3,1.13l1.61.93-.5.29c-.39.23-.53.73-.3,1.13.15.26.43.41.72.41.14,0,.28-.04.41-.11l1.32-.76,1.22.71c-.05.22-.08.45-.08.68s.03.46.08.68l-1.22.7-1.32-.76c-.4-.23-.9-.09-1.13.3-.23.39-.09.9.3,1.13l.5.29-1.61.93c-.4.23-.53.73-.3,1.13.15.27.43.41.72.41.14,0,.28-.04.41-.11l1.61-.93v.57c0,.46.37.83.83.83s.83-.37.83-.83v-1.53s1.22-.71,1.22-.71c.33.31.73.55,1.18.68v1.41l-1.32.76c-.4.23-.53.73-.3,1.13.23.4.73.53,1.13.3l.5-.29v1.86c0,.46.37.83.83.83s.83-.37.83-.83v-1.86l.5.29c.13.08.27.11.41.11.28,0,.56-.15.72-.41.23-.39.09-.9-.3-1.13l-1.32-.76v-1.41c.45-.13.85-.37,1.18-.68l1.22.71v1.53c0,.46.37.83.83.83s.83-.37.83-.83v-.57l1.61.93c.13.08.27.11.41.11.29,0,.56-.15.72-.41.23-.4.09-.9-.3-1.13Zm-7.31-2c-.7,0-1.26-.57-1.26-1.26s.57-1.26,1.26-1.26,1.26.57,1.26,1.26-.57,1.26-1.26,1.26Z"/>
        <g>
          <path class="cls-7" d="m32.77,0c15.43,0,28.37,10.67,31.84,25.04,2.8-1.36,5.94-2.14,9.26-2.14,11.77,0,21.32,9.54,21.32,21.31s-9.54,21.32-21.32,21.32h-41.11C14.67,65.53,0,50.86,0,32.77S14.67,0,32.77,0Z"/>
          <path class="cls-6" d="m28.57,31.31c8.53-6.92,11.86-17.46,7.44-23.54-4.43-6.08-14.93-5.4-23.46,1.52C4.02,16.21.69,26.75,5.11,32.83c4.43,6.08,14.93,5.4,23.46-1.52Z"/>
          <path class="cls-1" d="m71.5,40.3c4.69-3.8,6.52-9.6,4.09-12.94-2.43-3.34-8.2-2.97-12.9.83-4.69,3.8-6.52,9.6-4.09,12.94,2.43,3.34,8.21,2.97,12.9-.83Z"/>
          <path class="cls-2" d="m81.91,48.59c5.16-5.22,10.48-7.26,11.9-4.56,1.41,2.7-1.62,9.11-6.78,14.33-5.16,5.22-10.49,7.26-11.9,4.56-1.41-2.7,1.62-9.11,6.78-14.33Z"/>
        </g>
      </g>
    </g>
  </g>
</svg>